<?xml version="1.0" encoding="UTF-8" standalone="no"?><!DOCTYPE svg PUBLIC "-//W3C//DTD SVG 1.1//EN" "http://www.w3.org/Graphics/SVG/1.1/DTD/svg11.dtd"><svg width="100%" height="100%" viewBox="0 0 421 424" version="1.1" xmlns="http://www.w3.org/2000/svg" xmlns:xlink="http://www.w3.org/1999/xlink" xml:space="preserve" xmlns:serif="http://www.serif.com/" style="fill-rule:evenodd;clip-rule:evenodd;stroke-linecap:round;stroke-linejoin:round;stroke-miterlimit:1.5;"><rect id="Plan-de-travail1" serif:id="Plan de travail1" x="0" y="0" width="421" height="424" style="fill:none;"/><g id="Plan-de-travail11" serif:id="Plan de travail1"><path d="M209.107,211.227l183.487,102.779c-35.672,63.808 -103.922,106.971 -182.174,106.971c-115.178,-0 -208.688,-93.51 -208.688,-208.688c0,-114.74 92.801,-207.976 207.375,-208.654l0,207.592Z" style="fill:url(#_Linear1);stroke:url(#_Linear2);stroke-width:2.08px;"/><path d="M209.107,211.227l183.487,102.779c-35.672,63.808 -103.922,106.971 -182.174,106.971c-115.178,-0 -208.688,-93.51 -208.688,-208.688c0,-114.74 92.801,-207.976 207.375,-208.654l0,207.592Z" style="fill:url(#_Linear3);stroke:url(#_Linear4);stroke-width:2.08px;"/><path d="M209.107,3.635l1.313,-0.033c115.178,-0 208.687,93.509 208.687,208.687c0,36.926 -9.611,71.625 -26.513,101.717l-183.487,-102.779l0,-207.592Z" style="fill:url(#_Linear5);stroke:url(#_Linear6);stroke-width:2.08px;"/><path d="M209.107,3.635l1.313,-0.033c115.178,-0 208.687,93.509 208.687,208.687c0,36.926 -9.611,71.625 -26.513,101.717l-183.487,-102.779l0,-207.592Z" style="fill:url(#_Linear7);stroke:url(#_Linear8);stroke-width:2.08px;"/><path d="M392.594,314.006c-35.672,63.808 -103.922,106.971 -182.174,106.971c-115.178,-0 -208.688,-93.51 -208.688,-208.688c0,-114.74 92.801,-207.976 207.375,-208.654l1.313,-0.033c115.178,-0 208.687,93.509 208.687,208.687c0,36.926 -9.611,71.625 -26.513,101.717l-183.487,-102.779l183.487,102.779Z" style="fill:none;stroke:url(#_Linear9);stroke-width:2.08px;"/></g><defs><linearGradient id="_Linear1" x1="0" y1="0" x2="1" y2="0" gradientUnits="userSpaceOnUse" gradientTransform="matrix(1.00003,416.5,-416.5,1.00003,208.826,3.16527)"><stop offset="0" style="stop-color:#9a8c98;stop-opacity:1"/><stop offset="1" style="stop-color:#9a8c98;stop-opacity:0"/></linearGradient><linearGradient id="_Linear2" x1="0" y1="0" x2="1" y2="0" gradientUnits="userSpaceOnUse" gradientTransform="matrix(1.00003,416.5,-416.5,1.00003,208.826,3.16527)"><stop offset="0" style="stop-color:#4a4e69;stop-opacity:1"/><stop offset="1" style="stop-color:#4a4e69;stop-opacity:0"/></linearGradient><linearGradient id="_Linear3" x1="0" y1="0" x2="1" y2="0" gradientUnits="userSpaceOnUse" gradientTransform="matrix(0.250031,-419.512,419.512,0.250031,209.076,423.961)"><stop offset="0" style="stop-color:#c9ada7;stop-opacity:1"/><stop offset="1" style="stop-color:#c9ada7;stop-opacity:0"/></linearGradient><linearGradient id="_Linear4" x1="0" y1="0" x2="1" y2="0" gradientUnits="userSpaceOnUse" gradientTransform="matrix(0.250031,-419.512,419.512,0.250031,209.076,423.961)"><stop offset="0" style="stop-color:#4a4e69;stop-opacity:1"/><stop offset="1" style="stop-color:#4a4e69;stop-opacity:0"/></linearGradient><linearGradient id="_Linear5" x1="0" y1="0" x2="1" y2="0" gradientUnits="userSpaceOnUse" gradientTransform="matrix(2.5488e-14,-416.25,416.25,2.5488e-14,209.826,420.246)"><stop offset="0" style="stop-color:#14141d;stop-opacity:1"/><stop offset="1" style="stop-color:#14141d;stop-opacity:0"/></linearGradient><linearGradient id="_Linear6" x1="0" y1="0" x2="1" y2="0" gradientUnits="userSpaceOnUse" gradientTransform="matrix(2.5488e-14,-416.25,416.25,2.5488e-14,209.826,420.246)"><stop offset="0" style="stop-color:#4a4e69;stop-opacity:1"/><stop offset="1" style="stop-color:#4a4e69;stop-opacity:0"/></linearGradient><linearGradient id="_Linear7" x1="0" y1="0" x2="1" y2="0" gradientUnits="userSpaceOnUse" gradientTransform="matrix(-1.5,420,-420,-1.5,210.576,2.24557)"><stop offset="0" style="stop-color:#383858;stop-opacity:1"/><stop offset="1" style="stop-color:#383858;stop-opacity:0"/></linearGradient><linearGradient id="_Linear8" x1="0" y1="0" x2="1" y2="0" gradientUnits="userSpaceOnUse" gradientTransform="matrix(-1.5,420,-420,-1.5,210.576,2.24557)"><stop offset="0" style="stop-color:#4a4e69;stop-opacity:1"/><stop offset="1" style="stop-color:#4a4e69;stop-opacity:0"/></linearGradient><linearGradient id="_Linear9" x1="0" y1="0" x2="1" y2="0" gradientUnits="userSpaceOnUse" gradientTransform="matrix(0.250031,-419.512,419.512,0.250031,207.826,429.461)"><stop offset="0" style="stop-color:#4a4e69;stop-opacity:1"/><stop offset="1" style="stop-color:#4a4e69;stop-opacity:0"/></linearGradient></defs></svg>